<?xml version="1.0" standalone="no"?>
<!DOCTYPE svg PUBLIC "-//W3C//DTD SVG 20010904//EN"
 "http://www.w3.org/TR/2001/REC-SVG-20010904/DTD/svg10.dtd">
<svg version="1.0" xmlns="http://www.w3.org/2000/svg"
 width="1080.000000pt" height="1080.000000pt" viewBox="0 0 1080.000000 1080.000000"
 preserveAspectRatio="xMidYMid meet">
<metadata>
Created by potrace 1.14, written by Peter Selinger 2001-2017
</metadata>
<g transform="translate(0.000000,1080.000000) scale(0.100000,-0.100000)"
fill="#000000" stroke="none">
<path d="M4207 10614 c-1 -1 -31 -4 -67 -5 -78 -3 -213 -31 -295 -61 -146 -53
-269 -132 -386 -248 -112 -111 -165 -194 -305 -480 -59 -119 -79 -163 -139
-294 -7 -17 -27 -62 -44 -99 -17 -38 -31 -70 -31 -73 0 -2 -9 -26 -21 -52 -11
-26 -27 -61 -34 -78 -26 -62 -128 -322 -162 -414 -19 -52 -39 -104 -44 -115
-5 -11 -25 -67 -44 -125 -20 -58 -40 -114 -44 -125 -5 -11 -19 -51 -32 -90
-24 -75 -32 -88 -51 -91 -333 -57 -683 -284 -893 -579 -102 -144 -208 -375
-230 -505 -3 -19 -10 -51 -15 -70 -21 -83 -31 -359 -15 -430 3 -14 8 -45 11
-70 14 -111 75 -294 141 -423 35 -70 106 -182 130 -205 7 -7 13 -17 13 -22 0
-18 201 -212 278 -268 74 -55 234 -152 251 -152 3 0 19 -7 34 -15 41 -21 192
-71 260 -86 31 -7 57 -15 58 -18 0 -3 2 -13 4 -22 1 -9 6 -47 9 -85 4 -38 8
-80 11 -94 4 -25 10 -69 21 -137 9 -67 46 -268 49 -273 2 -3 6 -22 9 -42 17
-109 90 -378 163 -603 135 -414 333 -840 573 -1230 68 -112 211 -323 262 -390
5 -5 31 -39 58 -75 173 -224 317 -389 509 -581 221 -220 400 -376 641 -555
634 -473 1346 -806 2110 -988 138 -32 269 -60 335 -70 17 -3 71 -12 120 -20
50 -8 117 -17 150 -21 33 -3 71 -8 85 -10 77 -11 190 -21 355 -30 101 -6 414
-6 455 0 369 52 679 266 864 597 66 118 122 301 133 433 4 44 7 1340 7 2881
l1 2800 -33 67 c-56 114 -151 167 -287 162 -266 -11 -506 -225 -542 -483 -3
-26 -6 -378 -7 -782 -1 -483 -4 -735 -11 -735 -5 0 -59 37 -120 81 -60 45
-177 132 -260 193 -82 60 -154 114 -160 118 -52 41 -322 238 -366 266 -130 83
-270 135 -469 173 -62 12 -320 11 -397 -1 -204 -34 -361 -95 -536 -211 -179
-119 -325 -284 -431 -486 -100 -192 -136 -330 -141 -543 -6 -298 67 -547 234
-800 35 -54 399 -546 443 -600 75 -92 108 -164 108 -239 0 -194 -192 -336
-375 -277 -74 24 -114 59 -211 189 -49 64 -92 122 -97 127 -47 58 -339 455
-372 505 -170 262 -267 531 -301 835 -15 126 -8 409 11 505 3 14 8 39 11 55
28 158 88 335 171 500 49 98 173 289 223 345 144 157 219 226 347 322 50 37
94 68 97 68 3 0 29 15 58 33 161 103 443 206 633 233 28 3 59 9 70 12 11 3
114 6 228 8 l208 2 122 114 c66 62 137 129 157 148 95 90 512 483 685 645 87
81 303 284 379 356 45 43 101 96 126 119 25 23 101 95 170 160 69 65 143 135
165 155 170 159 331 312 395 375 l76 75 -1 830 c-1 457 -5 846 -9 865 -20 92
-105 180 -200 210 -57 18 -196 7 -276 -22 -63 -23 -149 -74 -201 -121 -42 -37
-107 -129 -132 -187 -48 -108 -50 -141 -51 -692 l-1 -518 -41 -37 c-45 -42
-282 -264 -349 -328 -23 -22 -76 -71 -116 -109 -94 -88 -350 -329 -449 -422
-41 -39 -118 -111 -170 -161 -52 -49 -128 -121 -169 -159 -41 -38 -93 -87
-116 -109 -68 -64 -316 -298 -345 -325 -15 -14 -52 -49 -83 -77 l-55 -53 -25
43 c-14 23 -37 65 -52 92 -26 46 -166 296 -230 410 -16 28 -38 68 -50 90 -13
22 -39 69 -60 105 -20 36 -49 88 -65 115 -42 75 -129 232 -170 305 -20 36 -94
169 -165 295 -70 127 -131 235 -135 240 -4 6 -22 37 -40 70 -191 349 -621
1102 -653 1145 -62 81 -162 178 -246 239 -47 33 -222 121 -242 121 -8 0 -19 3
-23 7 -3 4 -12 8 -19 9 -7 1 -30 6 -52 12 -70 19 -250 44 -258 36z m-1357
-3338 c206 -22 368 -202 375 -416 5 -169 -90 -328 -240 -400 -129 -61 -256
-60 -385 2 -263 128 -321 484 -112 693 56 55 167 112 237 121 28 3 52 8 53 9
2 2 9 2 15 0 7 -2 32 -6 57 -9z"/>
</g>
</svg>
